<svg xmlns="http://www.w3.org/2000/svg" viewBox="0 0 261 180"><g fill="none" fill-rule="evenodd"><path fill="#EDF1F5" fill-rule="nonzero" d="M.624 15.647C.624 7.408 7.303.728 15.541.728h230.05c8.24 0 14.917 6.68 14.917 14.919v148.67c0 8.238-6.678 14.918-14.917 14.918H15.541c-8.239 0-14.917-6.679-14.917-14.919V15.646zm9.46 0v148.67a5.457 5.457 0 005.457 5.458h230.05a5.458 5.458 0 005.457-5.459V15.646a5.457 5.457 0 00-5.457-5.458H15.541a5.458 5.458 0 00-5.457 5.459z"></path><path fill="#EDF1F5" d="M9.013 8H252.12v23H9.013zm25.998 36.534h84.755v8.509H35.011z"></path><path fill="#CCC" d="M217.459 41.558v12.897h-76.774l-.001-.057-2.975-6.456 2.975-6.35v-.034h76.775z"></path><path fill="#FFF" d="M148.881 51.473v-6.078h1.96c.66 0 .959.052 1.224.171.608.274.993.856.993 1.661 0 .728-.385 1.404-1.027 1.66v.018s.086.085.206.3l1.25 2.268h-1.233l-1.207-2.269h-1.062v2.269h-1.104zm1.104-3.227h.993c.59 0 .959-.351.959-.959 0-.582-.248-.942-1.113-.942h-.839v1.9zm4.04 2.5s.607.676 1.711.804v.787h.736v-.787c1.045-.137 1.653-.882 1.653-1.755 0-1.917-2.885-1.738-2.885-2.756 0-.428.402-.728.916-.728.762 0 1.344.53 1.344.53l.48-.898s-.515-.54-1.507-.625v-.787h-.737v.804c-.95.154-1.609.84-1.609 1.72 0 1.841 2.893 1.739 2.893 2.766 0 .496-.42.736-.881.736-.856 0-1.515-.642-1.515-.642l-.6.83z"></path><path fill="#EAEFF4" d="M35.011 59.415h94.721v68.954H35.011z"></path><path fill="#EAEFF4" d="M139.703 95.13h77.771v59.03h-77.771z" opacity="0.633"></path><path fill="#F2F5F8" d="M139.703 59.415h77.771v29.267h-77.771z"></path><path fill="#CCC" d="M145.685 64.376h34.568v2.127h-34.568zm0 4.961h21.606v2.127h-21.606zm0 4.96h65.806v9.92h-65.806z"></path><path fill="#EDF1F5" d="M32.46 133.468h85.676v5.318H32.46zm2.551-95.878h67.47v2.126h-67.47zM32.46 150.487h53.266v2.127H32.46z"></path><g transform="translate(12.217 17.355)" style="mix-blend-mode: luminosity;"><ellipse cx="18.948" cy="2.417" fill="#00B68A" rx="2.471" ry="2.393"></ellipse><ellipse cx="10.709" cy="2.417" fill="#FFC600" rx="2.471" ry="2.393"></ellipse><ellipse cx="2.471" cy="2.417" fill="#E75545" rx="2.471" ry="2.393"></ellipse></g><path fill="#FFF" d="M39.101 14.443h180.89V25.11H39.1z" opacity="0.625"></path></g></svg>