<?xml version="1.0" encoding="UTF-8"?>
<svg width="24px" height="24px" viewBox="0 0 24 24" version="1.1" xmlns="http://www.w3.org/2000/svg" xmlns:xlink="http://www.w3.org/1999/xlink">
    <!-- Generator: Sketch 48.2 (47327) - http://www.bohemiancoding.com/sketch -->
    <title>xxxhdpi0: Icons / Category / Empregos e negócios</title>
    <desc>Created with Sketch.</desc>
    <defs>
        <path d="M9.6352158,14.4374311 C9.65496854,14.416787 9.67319937,14.3962518 9.69015413,14.3755425 C10.0235824,13.9720837 10.1633773,13.4308657 10.1216558,12.9072743 C10.0997214,12.6320045 10.3050904,12.3910728 10.5803602,12.3691384 C10.8556301,12.347204 11.0965617,12.552573 11.1184961,12.8278429 C11.1783032,13.5784032 10.9820199,14.3589435 10.4942771,14.9715662 L12.1037272,18.9397139 L13.8283671,15.046635 C13.8191064,15.0361203 13.8099656,15.0255284 13.8009449,15.0148576 C13.3365668,14.4633605 13.1611723,13.6382611 13.2175594,12.8254294 C13.2366698,12.5499491 13.4754827,12.3421202 13.750963,12.3612306 C14.0264433,12.380341 14.2342722,12.6191539 14.2151618,12.8946342 C14.1750406,13.47299 14.2983394,14.053018 14.5652535,14.3700076 C14.5961276,14.4065287 14.6310517,14.4426413 14.6700243,14.4782991 C19.6075006,15.9150434 20.8076993,17.9245983 19.9241229,22.8751601 C19.8756038,23.1470066 19.6158961,23.3280491 19.3440496,23.27953 C19.0722032,23.2310108 18.8911606,22.9713032 18.9396798,22.6994567 C19.7148887,18.3560636 18.874685,16.8039278 14.7068389,15.5325487 L12.540583,20.4225 C12.3618079,20.8260543 11.7859878,20.8169266 11.6200933,20.4079087 L9.63452947,15.5124412 L8.18277132,16.0841211 C4.94691059,17.3766599 4.39495205,18.6091421 5.31534291,22.6768382 C5.37628463,22.9461721 5.20734944,23.2139133 4.9380156,23.274855 C4.66868176,23.3357967 4.40094052,23.1668616 4.3399988,22.8975277 C3.31649422,18.3741173 4.09262699,16.6410708 7.81409809,15.1545653 L9.63521794,14.4374303 Z M17.1151153,18.673913 C17.3912577,18.673913 17.6151153,18.8977707 17.6151153,19.173913 C17.6151153,19.4500554 17.3912577,19.673913 17.1151153,19.673913 L14.496446,19.673913 C14.2203036,19.673913 13.996446,19.4500554 13.996446,19.173913 C13.996446,18.8977707 14.2203036,18.673913 14.496446,18.673913 L17.1151153,18.673913 Z M10.9252451,6.14434543 C9.70670395,6.14434543 9.4971816,6.66940103 9.4971816,9.25657925 C9.4971816,11.2299683 10.8060707,12.7972131 12.3715862,12.7972131 C13.8289989,12.7972131 15.2143062,10.7854594 15.2143062,8.68015229 C15.2143062,7.7045028 14.8478142,6.1696311 14.4332078,5.32290836 C13.6372363,5.91032411 12.3124531,6.14434543 10.9252451,6.14434543 Z M14.8844902,4.19168605 C15.5975092,4.979328 16.2143062,7.25524172 16.2143062,8.68015229 C16.2143062,11.2754963 14.4778348,13.7972131 12.3715862,13.7972131 C10.2099172,13.7972131 8.4971816,11.7464083 8.4971816,9.25657925 C8.4971816,6.16219798 8.90335355,5.14434543 10.9252451,5.14434543 C12.3187554,5.14434543 13.7340833,4.82578313 14.0910037,4.26035123 C14.2676239,3.98055018 14.6624298,3.94638525 14.8844902,4.19168605 Z M18.2080654,16.3458025 C18.0350749,16.561044 17.7203507,16.5952951 17.5051092,16.4223045 C17.2898678,16.249314 17.2556167,15.9345898 17.4286072,15.7193483 C18.0101568,14.9957621 18.0451404,14.4759107 17.805737,12.6016828 C17.700669,11.7791327 17.6557181,11.2656247 17.6557181,10.6578174 C17.6557181,7.46478586 17.5100495,5.88272995 16.9164129,4.47697927 C16.1647172,2.69693947 14.7450419,1.83607155 12.2740676,1.963802 C7.64638962,2.20251707 6.78516015,3.79789052 6.78516015,9.50998131 C6.78516015,13.0406393 6.94306975,14.4234226 7.58722939,15.3279266 C7.74741846,15.5528578 7.69493454,15.8650595 7.47000328,16.0252486 C7.24507201,16.1854377 6.9328703,16.1329538 6.77268123,15.9080225 C5.95256685,14.7564498 5.78516015,13.2905022 5.78516015,9.50998131 C5.78516015,3.33459298 6.91651042,1.23883772 12.2224981,0.965132593 C15.1079391,0.81597739 16.9199029,1.91472262 17.8376396,4.08795306 C18.5025744,5.66254006 18.6557181,7.32578118 18.6557181,10.6578174 C18.6557181,11.2131506 18.6975717,11.6912763 18.7976774,12.4749779 C19.0712017,14.6163291 19.0230565,15.3317595 18.2080654,16.3458025 Z" id="path-1"></path>
    </defs>
    <g id="Symbols" stroke="none" stroke-width="1" fill="none" fill-rule="evenodd">
        <g id="0:-Icons-/-Category-/-Empregos-e-negócios">
            <path d="M0,0 L24,0 L24,24 L0,24 L0,0 Z M0,0 L24,0 L24,24 L0,24 L0,0 Z M0,0 L24,0 L24,24 L0,24 L0,0 Z M0,0 L24,0 L24,24 L0,24 L0,0 Z" id="Container"></path>
            <mask id="mask-2" fill="white">
                <use xlink:href="#path-1"></use>
            </mask>
            <use id="Mask" fill="#4A4A4A" fill-rule="nonzero" xlink:href="#path-1"></use>
            <g id="0:-Fundamentals-/-Color-/-Primary-/-Black" mask="url(#mask-2)" fill="#4A4A4A">
                <rect id="Mixin/Fill/Black" x="0" y="0" width="24" height="24"></rect>
            </g>
        </g>
    </g>
</svg>